# xmcd
#
# Track frame offsets: 
#        187
#        25467
#        45012
#        64947
#        90057
#        111450
#        133480
#        155367
#        181675
#        210755
#
# Disc length: 3062 seconds
#
# Revision: 3
# Processed by: cddbd v1.5.2PL0 Copyright (c) Steve Scherf et al.
# Submitted via: ExactAudioCopy v1.3
#
DISCID=770bf40a
DTITLE=徳永英明 - REALIZE
DYEAR=1989
DGENRE=JPop
TTITLE0=君の青
TTITLE1=眠れない夜
TTITLE2=ラバーズ
TTITLE3=You're in the sky〜Eolia〜
TTITLE4=そして星になったよ
TTITLE5=恋人
TTITLE6=コバルトに消えたブルー
TTITLE7=MYSELF〜風になりたい〜
TTITLE8=最後の言い訳
TTITLE9=僕の時計
EXTD=
EXTT0=
EXTT1=
EXTT2=
EXTT3=
EXTT4=
EXTT5=
EXTT6=
EXTT7=
EXTT8=
EXTT9=
PLAYORDER=
